<?xml version="1.0" encoding="UTF-8"?>
<!-- Generator: Adobe Illustrator 18.1.1, SVG Export Plug-In . SVG Version: 6.00 Build 0)  -->
<svg version="1.1" id="Layer_1" xmlns="http://www.w3.org/2000/svg" xmlns:xlink="http://www.w3.org/1999/xlink" x="0px" y="0px" viewBox="0 0 79.9 79.9" enable-background="new 0 0 79.9 79.9" xml:space="preserve">
<g>
	<path fill="#50CEA2" d="M49.8,25v23.6l-12.7-6.1v7.7l19.6,9.5V20.2L49.8,25z M42.8,29.7l-19.8-9.5v39.5l7.1-4.7V31.3l12.7,6.1V29.7   z M49.8,25v23.6l-12.7-6.1v7.7l19.6,9.5V20.2L49.8,25z M42.8,29.7l-19.8-9.5v39.5l7.1-4.7V31.3l12.7,6.1V29.7z M49.8,25v23.6   l-12.7-6.1v7.7l19.6,9.5V20.2L49.8,25z M42.8,29.7l-19.8-9.5v39.5l7.1-4.7V31.3l12.7,6.1V29.7z M39.9,0C17.9,0,0,17.9,0,39.9   s17.9,39.9,39.9,39.9S79.9,62,79.9,39.9S62,0,39.9,0z M39.9,72.9C21.8,72.9,7,58.1,7,39.9C7,21.8,21.8,7,39.9,7   s32.9,14.7,32.9,32.9C72.9,58.1,58.1,72.9,39.9,72.9z M49.8,48.6l-12.7-6.1v7.7l19.6,9.5V20.2L49.8,25V48.6z M42.8,29.7l-19.8-9.5   v39.5l7.1-4.7V31.3l12.7,6.1V29.7z M49.8,25v23.6l-12.7-6.1v7.7l19.6,9.5V20.2L49.8,25z M23.1,20.2v39.5l7.1-4.7V31.3l12.7,6.1   v-7.7L23.1,20.2z"/>
</g>
</svg>